# xmcd
#
# Track frame offsets: 
#        150
#        26029
#        55976
#        74485
#        100637
#        120805
#        145125
#        175076
#        195229
#        216314
#        243101
#        262693
#        283747
#        300379
#        314576
#        335336
#
# Disc length: 4752 seconds
#
# Revision: 0
# Processed by: cddbd v1.5.2PL0 Copyright (c) Steve Scherf et al.
# Submitted via: ExactAudioCopy v0.95b3
#
DISCID=da128e10
DTITLE=Def Leppard  - Hysteria - (Deluxe Edition) - Disc 1
DYEAR=1900
DGENRE=
TTITLE0=Women
TTITLE1=Rocket
TTITLE2=Animal
TTITLE3=Love Bites
TTITLE4=Pour Some Sugar On Me
TTITLE5=Armageddon
TTITLE6=Gods Of War
TTITLE7=Don"t Shoot Shotgun
TTITLE8=Run Riot
TTITLE9=Hysteria
TTITLE10=Excitable
TTITLE11=Love and Affection
TTITLE12=Tear It Down
TTITLE13=Ride Into The Sun
TTITLE14=I Wanna Be Your Hero
TTITLE15=Ring Of Fire
EXTD=
EXTT0=
EXTT1=
EXTT2=
EXTT3=
EXTT4=
EXTT5=
EXTT6=
EXTT7=
EXTT8=
EXTT9=
EXTT10=
EXTT11=
EXTT12=
EXTT13=
EXTT14=
EXTT15=
PLAYORDER=
